<svg id="Calque_1" data-name="Calque 1" xmlns="http://www.w3.org/2000/svg" viewBox="0 0 854 881"><defs><style>.cls-1{fill:#ffcffc;}.cls-2,.cls-3{fill:#9f69fe;}.cls-3{fill-opacity:0.3;}.cls-4,.cls-5{fill:#fe6ad3;}.cls-5{fill-opacity:0.5;}</style></defs><path class="cls-1" d="M843.61,416.22,661.27,279a499.6,499.6,0,0,1-96.63-95.9L427.13,3.27,252.7,228.17c11.1,44.17,56.52,145,165,159.58,32.54,4.38,86.47,8.05,174.65-15.36,1-.18,2-.31,2.94-.47,12.75,13.37,39,70.19,110.2,100.62,37.48,14,59.91.21,83.54-16.53Z"/><path class="cls-1" d="M843.61,416.22,661.27,279a499.6,499.6,0,0,1-96.63-95.9L427.13,3.27,252.7,228.17c11.1,44.17,56.52,145,165,159.58,32.54,4.38,86.47,8.05,174.65-15.36,1-.18,2-.31,2.94-.47,12.75,13.37,39,70.19,110.2,100.62,37.48,14,59.91.21,83.54-16.53Z"/><path class="cls-2" d="M592.32,372.08c34.35-6.44,70.87.82,92.66,8.93,12.88,5.16,67.81,25.91,103.9,74.71l54.73-39.83L661.24,278.65a500.18,500.18,0,0,1-96.51-95.75L427.13,3,252.7,227.9c11.1,44.18,56.52,145,165,159.59,32.54,4.37,86.47,8.05,174.65-15.37"/><path class="cls-3" d="M592.32,372.08c34.35-6.44,70.87.82,92.66,8.93,12.88,5.16,67.81,25.91,103.9,74.71l54.73-39.83L661.24,278.65a500.18,500.18,0,0,1-96.51-95.75L427.13,3,252.7,227.9c11.1,44.18,56.52,145,165,159.59,32.54,4.37,86.47,8.05,174.65-15.37"/><path class="cls-2" d="M592.32,372.08c34.35-6.44,70.87.82,92.66,8.93,12.88,5.16,67.81,25.91,103.9,74.71l54.73-39.83L661.24,278.65a500.18,500.18,0,0,1-96.51-95.75L427.13,3,252.7,227.9c11.1,44.18,56.52,145,165,159.59,32.54,4.37,86.47,8.05,174.65-15.37"/><path class="cls-1" d="M30,429.08,267.18,607.6,446.51,842l174.43-224.9c-11.11-44.17-56.52-145-165-159.55-32.51-4.37-86.46-8.05-174.64,15.37-1,.18-1.95.3-2.93.46-12.76-13.37-39-70.18-110.22-100.61-37.47-14-59.89-.22-83.52,16.53Z"/><path class="cls-1" d="M30,429.08,267.18,607.6,446.51,842l174.43-224.9c-11.11-44.17-56.52-145-165-159.55-32.51-4.37-86.46-8.05-174.64,15.37-1,.18-1.95.3-2.93.46-12.76-13.37-39-70.18-110.22-100.61-37.47-14-59.89-.22-83.52,16.53Z"/><path class="cls-4" d="M281.33,473.2c-34.35,6.46-70.85-.82-92.64-8.93-12.89-5.16-67.82-25.9-103.92-74.69L30,429.34,223.35,574.86a400.25,400.25,0,0,1,77.16,76.56l146,190.86,174.43-224.9c-11.08-44.16-56.52-145-165-159.57-32.51-4.37-86.46-8.05-174.64,15.35"/><path class="cls-5" d="M281.33,473.2c-34.35,6.46-70.85-.82-92.64-8.93-12.89-5.16-67.82-25.9-103.92-74.69L30,429.34,223.35,574.86a400.25,400.25,0,0,1,77.16,76.56l146,190.86,174.43-224.9c-11.08-44.16-56.52-145-165-159.57-32.51-4.37-86.46-8.05-174.64,15.35"/><path class="cls-4" d="M281.33,473.2c-34.35,6.46-70.85-.82-92.64-8.93-12.89-5.16-67.82-25.9-103.92-74.69L30,429.34,223.35,574.86a400.25,400.25,0,0,1,77.16,76.56l146,190.86,174.43-224.9c-11.08-44.16-56.52-145-165-159.57-32.51-4.37-86.46-8.05-174.64,15.35"/></svg>